<svg version="1.1" xmlns="http://www.w3.org/2000/svg" viewBox="32 0 238 238">
<g>
	<polygon style="fill:#EEE;" points="219,0 32,0 32,238 270,238 270,50"/>
	<polygon style="fill:#C33;" points="227,25 32,25 32,0 219,0"/>
	<polygon style="fill:#CCC;" points="219,50 270,50 219,0"/>
	<g transform="matrix(4.5,0,0,4.5,15,-30)">
		<path style="fill:#C33;" d="M18.2,38.5c0-0.9-0.3-1.5-1-2c-0.7-0.5-1.6-0.7-2.8-0.7v-3.6c1.3,0,2.2-0.2,2.9-0.7c0.6-0.4,1-1.1,1-1.9v-0.1
			v-4.8c0-1.5,0.5-2.6,1.5-3.2s2.7-0.9,5.1-0.9V24c-1,0-1.7,0.2-2,0.6c-0.4,0.3-0.6,0.9-0.6,1.5v4.5c-0.1,1.9-1.2,3-3.5,3.3v0.2
			c2.3,0.3,3.5,1.4,3.5,3.2v0.1v4.5c0,0.7,0.2,1.2,0.6,1.5c0.4,0.3,1.1,0.5,2,0.6v3.4c-2.4,0-4.1-0.3-5.1-0.9
			c-1-0.6-1.5-1.7-1.5-3.2V38.5z"/>
		<path style="fill:#C33;" d="M41.8,43.2c0,1.1-0.2,2-0.6,2.5c-0.4,0.6-1.1,1-2,1.2c-0.9,0.3-2.2,0.4-3.9,0.4V44c1,0,1.7-0.2,2-0.5
			c0.4-0.3,0.6-0.9,0.6-1.6v-4.5v-0.2c0-0.9,0.3-1.6,0.9-2.1c0.6-0.5,1.5-0.9,2.6-1.1v-0.2c-2.3-0.3-3.4-1.4-3.5-3.3v-4.5
			c0-0.7-0.2-1.2-0.6-1.6s-1.1-0.5-2-0.6v-3.4c1.7,0,3,0.1,3.9,0.4c0.9,0.3,1.6,0.7,2,1.3c0.4,0.6,0.6,1.4,0.6,2.5v4.8v0.1
			c0,0.8,0.3,1.5,0.9,1.9c0.6,0.4,1.6,0.6,2.9,0.6v3.6c-1.2,0-2.2,0.2-2.8,0.6c-0.7,0.4-1,1.1-1,2.1V43.2z"/>
	</g>
</g>
</svg>
