<svg xmlns="http://www.w3.org/2000/svg" version="1.1" xmlns:xlink="http://www.w3.org/1999/xlink" viewBox="0 0 250 250">
<g transform="matrix( 1, 0, 0, 1, 125,145) ">
<g transform="matrix( 1, 0, 0, 1, 0,0) ">
<path fill="#000222" stroke="none" d="
M 33.3 4.95
L 34 5.5
Q 40.3478515625 11.75 40 18
L 40 43
Q 39.9 47.85 37.25 51.75 34.85 55.3 31.4 56.85 28 58.35 25.6 57.1 23 55.7 23 51.5
L 23 29
Q 22.75 23.6 20.35 21.6 18.3 19.9 15.2 21.1 12.4 22.2 10.25 25.05 8 28 8 31
L 8 47.5
Q 7.146484375 59.16328125 -1 59 -9.15 59.15 -10 47.5
L -10 31
Q -10 28 -12.25 25.05 -14.4 22.2 -17.2 21.1 -20.3 19.9 -22.35 21.6 -24.75 23.6 -25 29
L -25 51.5
Q -25 55.7 -27.6 57.1 -30 58.35 -33.4 56.85 -36.85 55.3 -39.25 51.75 -41.9 47.85 -42 43
L -42 18
Q -42.35 11.75 -36 5.5
L -35.4 4.95 -73.1 10.45 -76.95 59.5
Q -77.55 64.85 -73.2 72.15 -68.95 79.4 -61.45 86.1 -43.65 101.95 -24.5 102.5
L 22.5 102.5
Q 41.65 101.95 59.45 86.1 66.95 79.4 71.2 72.15 75.55 64.85 74.95 59.5
L 71.1 10.45 33.3 4.95 Z"/>

<path fill="#878787" stroke="none" d="
M -1 -143.5
L -1 -117.5
Q 15.080859375 -115.934765625 14.5 -103
L 7.5 -28.5
Q 7.03984375 -18.0470703125 14 -11.5
L 33.35 4.95 33.3 4.95 71.1 10.45 62.8 -95.65
Q 50.1181640625 -142.5208984375 -1 -143.5 Z"/>

<path fill="#E4130E" stroke="none" d="
M -16.5 -103
Q -17.1 -115.95 -1 -117.5
L -1 -143.5
Q -34.53515625 -142.84375 -51.55 -122.45
L -56 -60.5 -68.4 -49.55 -73.1 10.45 -35.4 4.95 -35.35 4.95 -16 -11.5
Q -9.05 -18.05 -9.5 -28.5
L -16.5 -103 Z"/>
</g>
</g>
</svg>