<?xml version="1.0" encoding="utf-8"?>
<!-- Generator: Adobe Illustrator 14.0.0, SVG Export Plug-In . SVG Version: 6.00 Build 43363)  -->
<!DOCTYPE svg PUBLIC "-//W3C//DTD SVG 1.1//EN" "http://www.w3.org/Graphics/SVG/1.1/DTD/svg11.dtd">
<svg version="1.1" id="Layer_1" xmlns="http://www.w3.org/2000/svg" xmlns:xlink="http://www.w3.org/1999/xlink" x="0px" y="0px"
	 width="475px" height="475px" viewBox="0 0 475 475" enable-background="new 0 0 475 475" xml:space="preserve">
<g>
	<path fill="none" stroke="#040000" stroke-width="0.7" stroke-linecap="round" stroke-linejoin="round" d="M29.907,248.729
		c0.024,0.033,0.314-0.281,0.339-0.247c0.517,0.711-2.862,7.762-2.346,8.473c0.61,0.84,7.788-6.941,8.397-6.102
		c0.749,1.029-6.822,10.152-6.073,11.182c0.975,1.343,12.443-11.091,13.418-9.748c0.786,1.083-7.449,10.524-6.662,11.607
		c2.518,3.467,32.135-28.641,34.652-25.176c2.182,3.001-28.653,23.001-26.473,26.002c1.979,2.724,25.252-22.507,27.23-19.784
		c1.45,1.996-17.692,16.573-16.243,18.569c1.019,1.401,12.992-11.58,14.011-10.179"/>
	<path fill="none" stroke="#040000" stroke-width="0.7" stroke-linecap="round" stroke-linejoin="round" d="M47.07,209.596
		c1.196,1.646,15.279-13.619,16.476-11.971c0.76,1.044-7.003,10.261-6.244,11.305c0.904,1.245,11.545-10.29,12.45-9.045
		c0.716,0.986-6.3,9.841-5.584,10.826c0.237,0.324,3.024-2.697,3.262-2.371"/>
	<path fill="none" stroke="#040000" stroke-width="0.7" stroke-linecap="round" stroke-linejoin="round" d="M33.074,203.419
		c0.341,0.471,4.36-3.886,4.702-3.415c0.996,1.37-10.757,12.487-9.761,13.859c1.738,2.392,22.185-19.772,23.922-17.381
		c1.978,2.723-25.618,21.223-23.641,23.944c2.338,3.218,29.844-26.6,32.183-23.382c2.424,3.336-32.265,25.114-29.841,28.45
		c0.913,1.255,11.648-10.384,12.562-9.127c0.939,1.293-9.865,11.96-8.925,13.252c0.904,1.245,11.545-10.289,12.448-9.044
		c0.848,1.166-8.412,11.101-7.566,12.267c0.959,1.319,12.235-10.906,13.195-9.587c0.841,1.159-8.337,11.053-7.493,12.212
		c0.977,1.348,12.484-11.128,13.463-9.781c0.84,1.157-8.31,11.038-7.469,12.194c0.936,1.287,11.939-10.642,12.874-9.354
		c0.88,1.211-8.929,11.406-8.049,12.617c0.894,1.229,11.404-10.166,12.299-8.936c1.079,1.485-12.045,13.248-10.965,14.734
		c1.018,1.4,12.985-11.574,14.002-10.173"/>
	<path fill="none" stroke="#040000" stroke-width="0.7" stroke-linecap="round" stroke-linejoin="round" d="M98.954,242.555
		c1.646,2.265,21.002-18.718,22.646-16.453c1.217,1.673-14.132,14.479-12.915,16.152c1.032,1.423,13.18-11.747,14.212-10.326
		c1.345,1.851-16.085,15.63-14.741,17.479c1.084,1.492,13.835-12.331,14.919-10.84"/>
	<path fill="none" stroke="#040000" stroke-width="0.7" stroke-linecap="round" stroke-linejoin="round" d="M84.768,238.608
		c0.293,0.405,3.748-3.341,4.041-2.936c0.925,1.271-9.627,11.819-8.703,13.092c1.682,2.314,21.468-19.135,23.149-16.819
		c1.888,2.599-24.272,20.433-22.385,23.03c2.946,4.056,37.607-33.518,40.555-29.463c2.997,4.125-40.792,30.102-37.795,34.228
		c0.841,1.158,10.729-9.564,11.57-8.406c0.812,1.119-7.873,10.778-7.06,11.898c0.885,1.216,11.283-10.058,12.167-8.841
		c0.679,0.935-5.678,9.468-5,10.402c2.017,2.775,25.75-22.952,27.768-20.177c1.23,1.694-14.352,14.609-13.121,16.302
		c0.953,1.313,12.168-10.845,13.121-9.531c0.858,1.179-8.582,11.2-7.726,12.381c0.572,0.787,7.3-6.506,7.871-5.718"/>
	<path fill="none" stroke="#040000" stroke-width="0.7" stroke-linecap="round" stroke-linejoin="round" d="M83.501,219.049
		c0.086,0.117,1.093-0.975,1.18-0.855c0.38,0.523,0.041,5.936,0.422,6.459c0.998,1.373,12.731-11.346,13.729-9.973
		c0.717,0.988-6.324,9.855-5.608,10.842c1.053,1.448,13.424-11.964,14.476-10.516c0.654,0.899-5.271,9.223-4.617,10.123
		c0.801,1.102,10.213-9.104,11.014-8.001c0.766,1.055-7.126,10.332-6.358,11.387c0.782,1.076,9.985-8.899,10.767-7.821"/>
	<path fill="none" stroke="#040000" stroke-width="0.7" stroke-linecap="round" stroke-linejoin="round" d="M167.692,215.995
		c0.03,0.043,0.396-0.353,0.428-0.311"/>
	<path fill="none" stroke="#040000" stroke-width="0.7" stroke-linecap="round" stroke-linejoin="round" d="M153.953,226.916
		c0.809,1.112,10.319-9.199,11.128-8.085c0.527,0.725-3.049,7.875-2.522,8.601c1.182,1.625,15.073-13.436,16.255-11.81
		c1.206,1.659-13.98,14.391-12.775,16.051c1.152,1.585,14.71-13.112,15.862-11.525c1.362,1.874-16.359,15.79-14.997,17.664
		c1.08,1.486,13.786-12.286,14.866-10.799c1.358,1.868-16.312,15.76-14.953,17.632c1.083,1.489,13.829-12.326,14.911-10.834"/>
	<path fill="none" stroke="#040000" stroke-width="0.7" stroke-linecap="round" stroke-linejoin="round" d="M139.785,220.379
		c0.362,0.5,4.635-4.131,4.998-3.631c1.101,1.513-12.355,13.433-11.256,14.946c1.688,2.323,21.549-19.207,23.237-16.884
		c2.024,2.786-26.306,21.625-24.281,24.411c2.211,3.043,28.231-25.164,30.444-22.119c2.439,3.357-32.513,25.259-30.073,28.616
		c1.104,1.521,14.092-12.56,15.196-11.039c1.268,1.743-14.91,14.938-13.645,16.681c0.959,1.318,12.228-10.899,13.187-9.58
		c1.059,1.458-11.718,13.057-10.659,14.514c0.881,1.212,11.256-10.035,12.139-8.821c0.906,1.249-9.354,11.658-8.446,12.906
		c0.873,1.201,11.14-9.93,12.013-8.729c0.81,1.114-7.815,10.745-7.005,11.858c1.084,1.493,13.845-12.341,14.93-10.848
		c0.828,1.141-8.115,10.923-7.287,12.062c2.068,2.848,26.399-23.528,28.468-20.681c1.355,1.866-16.269,15.734-14.911,17.601
		c1.084,1.492,13.838-12.334,14.922-10.842c1.355,1.866-16.255,15.729-14.901,17.595c1.085,1.49,13.828-12.324,14.91-10.833
		c1.356,1.864-16.241,15.722-14.887,17.586c1.083,1.489,13.816-12.315,14.899-10.825c1.353,1.862-16.231,15.714-14.877,17.576
		c1.081,1.489,13.805-12.305,14.886-10.815c0.841,1.157-8.315,11.043-7.475,12.199c0.545,0.748,6.941-6.186,7.485-5.438"/>
	<path fill="none" stroke="#040000" stroke-width="0.7" stroke-linecap="round" stroke-linejoin="round" d="M213.066,225.742
		c0.959,1.319,12.238-10.907,13.196-9.588c0.688,0.946-5.83,9.559-5.143,10.505c0.764,1.05,9.736-8.678,10.499-7.627
		c0.826,1.136-8.07,10.896-7.245,12.031c0.828,1.14,10.565-9.417,11.393-8.277c1.013,1.392-10.994,12.628-9.982,14.021
		c0.937,1.287,11.944-10.645,12.879-9.356c1.223,1.683-14.241,14.543-13.018,16.226c1.079,1.486,13.782-12.283,14.86-10.797"/>
	<path fill="none" stroke="#040000" stroke-width="0.7" stroke-linecap="round" stroke-linejoin="round" d="M198.524,221.137
		c0.359,0.495,4.58-4.081,4.938-3.587c1.115,1.533-12.581,13.565-11.467,15.099c1.813,2.497,23.145-20.628,24.957-18.132
		c2.141,2.946-28.044,22.643-25.903,25.588c2.444,3.363,31.193-27.802,33.637-24.438c2.645,3.641-35.553,27.037-32.908,30.678
		c1.089,1.496,13.877-12.366,14.964-10.872c1.229,1.692-14.339,14.603-13.109,16.293c0.936,1.291,11.958-10.658,12.896-9.369
		c1.012,1.394-10.998,12.632-9.988,14.025c0.829,1.141,10.579-9.429,11.408-8.287c0.827,1.139-8.107,10.917-7.279,12.056
		c0.766,1.056,9.779-8.717,10.545-7.66c0.688,0.946-5.837,9.562-5.149,10.509c0.924,1.271,11.79-10.506,12.712-9.236
		c0.716,0.984-6.273,9.825-5.559,10.808c2.004,2.759,25.572-22.791,27.574-20.034c1.511,2.077-18.585,17.098-17.077,19.176
		c0.985,1.355,12.572-11.204,13.558-9.849"/>
	<path fill="none" stroke="#040000" stroke-width="0.7" stroke-linecap="round" stroke-linejoin="round" d="M270.232,225.742
		c0.96,1.319,12.238-10.907,13.196-9.588c0.688,0.946-5.83,9.559-5.143,10.505c0.764,1.05,9.736-8.678,10.5-7.628
		c0.824,1.137-8.071,10.896-7.246,12.032c0.829,1.14,10.565-9.416,11.393-8.277c1.013,1.392-10.994,12.628-9.98,14.021
		c0.935,1.287,11.94-10.645,12.876-9.356c1.224,1.683-14.24,14.543-13.017,16.226c1.079,1.486,13.782-12.283,14.862-10.797"/>
	<path fill="none" stroke="#040000" stroke-width="0.7" stroke-linecap="round" stroke-linejoin="round" d="M255.69,221.138
		c0.359,0.494,4.58-4.082,4.938-3.588c1.115,1.533-12.58,13.565-11.465,15.099c1.812,2.496,23.143-20.628,24.956-18.132
		c2.14,2.946-28.045,22.643-25.903,25.588c2.444,3.363,31.192-27.801,33.636-24.437c2.645,3.639-35.551,27.035-32.906,30.676
		c1.087,1.496,13.875-12.366,14.962-10.87c1.229,1.69-14.34,14.601-13.109,16.292c0.938,1.29,11.958-10.659,12.896-9.368
		c1.012,1.392-10.999,12.63-9.986,14.023c0.829,1.141,10.577-9.428,11.406-8.287c0.827,1.139-8.105,10.917-7.279,12.057
		c0.768,1.055,9.78-8.718,10.546-7.661c0.688,0.946-5.838,9.562-5.15,10.511c0.924,1.27,11.788-10.508,12.714-9.237
		c0.714,0.983-6.275,9.824-5.561,10.808c2.004,2.758,25.573-22.794,27.576-20.035c1.511,2.077-18.588,17.098-17.077,19.176
		c0.983,1.355,12.571-11.204,13.556-9.849"/>
	<path fill="none" stroke="#040000" stroke-width="0.7" stroke-linecap="round" stroke-linejoin="round" d="M307.557,251.192
		c0.024,0.032,0.304-0.271,0.328-0.238c0.516,0.711-2.864,7.762-2.347,8.474c0.609,0.838,7.776-6.934,8.387-6.094
		c0.634,0.872-4.931,9.019-4.297,9.89c0.895,1.23,11.406-10.165,12.301-8.937c0.675,0.929-5.615,9.429-4.94,10.358
		c1.752,2.411,22.366-19.935,24.117-17.522c1.311,1.804-15.578,15.331-14.269,17.135c0.984,1.354,12.555-11.188,13.539-9.836"/>
	<path fill="none" stroke="#040000" stroke-width="0.7" stroke-linecap="round" stroke-linejoin="round" d="M323.034,225.449
		c0.942,1.296,12.013-10.707,12.954-9.411c0.616,0.846-4.612,8.827-3.997,9.674c0.46,0.635,5.885-5.245,6.345-4.611"/>
	<path fill="none" stroke="#040000" stroke-width="0.7" stroke-linecap="round" stroke-linejoin="round" d="M310.553,220.007
		c0.312,0.428,3.981-3.549,4.294-3.12c0.915,1.261-9.491,11.74-8.577,13c1.535,2.11,19.569-17.441,21.103-15.331
		c1.704,2.348-21.538,18.831-19.832,21.179c1.997,2.747,25.489-22.722,27.487-19.972c2.004,2.758-26.018,21.455-24.012,24.213
		c0.826,1.138,10.545-9.399,11.373-8.262c0.769,1.059-7.181,10.365-6.411,11.425c0.886,1.217,11.286-10.06,12.171-8.842
		c0.75,1.032-6.857,10.172-6.106,11.206c0.858,1.182,10.96-9.769,11.818-8.587c0.816,1.124-7.937,10.813-7.118,11.939
		c0.84,1.155,10.721-9.556,11.562-8.399"/>
	<path fill="none" stroke="#040000" stroke-width="0.7" stroke-linecap="round" stroke-linejoin="round" d="M370.453,227.261
		c1.142,1.569,14.553-12.97,15.691-11.402c0.864,1.188-8.66,11.249-7.798,12.436c0.911,1.253,11.619-10.356,12.531-9.104
		c1.01,1.392-10.989,12.625-9.979,14.017c0.946,1.301,12.061-10.748,13.005-9.448c1.192,1.64-13.762,14.262-12.569,15.901
		c1.037,1.428,13.24-11.801,14.277-10.372c1.311,1.805-15.588,15.335-14.277,17.14c1.083,1.49,13.812-12.31,14.894-10.82
		c1.354,1.864-16.249,15.724-14.894,17.59c1.083,1.491,13.828-12.325,14.911-10.834c1.355,1.866-16.267,15.735-14.911,17.602
		c1.085,1.492,13.837-12.333,14.921-10.841c1.073,1.479-11.95,13.193-10.877,14.672c0.791,1.089,10.096-8.999,10.886-7.91
		c0.474,0.65-2.006,7.234-1.534,7.884c0.112,0.155,1.433-1.275,1.545-1.123"/>
	<path fill="none" stroke="#040000" stroke-width="0.7" stroke-linecap="round" stroke-linejoin="round" d="M350.58,194.157
		c0.031,0.04,0.38-0.34,0.41-0.298c0.415,0.573-0.826,6.493-0.409,7.065c0.709,0.976,9.051-8.067,9.76-7.091
		c0.997,1.371-10.757,12.487-9.76,13.859c1.083,1.49,13.822-12.319,14.905-10.829c1.355,1.865-16.261,15.732-14.905,17.598
		c1.083,1.492,13.832-12.327,14.915-10.837c1.356,1.867-16.271,15.739-14.915,17.605c1.083,1.493,13.84-12.337,14.925-10.844
		c1.357,1.868-16.282,15.744-14.926,17.612c1.086,1.494,13.852-12.345,14.937-10.852c1.357,1.869-16.293,15.752-14.937,17.62
		c2.012,2.769,25.669-22.879,27.682-20.112c2.269,3.122-29.949,23.759-27.681,26.88c1.257,1.729,16.043-14.298,17.3-12.568
		c1.525,2.099-18.826,17.239-17.3,19.338c1.083,1.489,13.821-12.319,14.904-10.829c1.355,1.866-16.26,15.731-14.904,17.597
		c1.083,1.491,13.829-12.326,14.913-10.834c1.357,1.866-16.27,15.737-14.913,17.604c1.083,1.492,13.84-12.337,14.923-10.844
		c0.896,1.234-9.184,11.558-8.287,12.79c0.603,0.83,7.694-6.858,8.298-6.027"/>
	<path fill="none" stroke="#040000" stroke-width="0.7" stroke-linecap="round" stroke-linejoin="round" d="M424.214,242.556
		c1.646,2.265,21.002-18.719,22.647-16.454c1.216,1.674-14.132,14.479-12.918,16.152c1.035,1.423,13.182-11.747,14.214-10.326
		c1.345,1.851-16.085,15.63-14.74,17.479c1.083,1.492,13.834-12.33,14.918-10.838"/>
	<path fill="none" stroke="#040000" stroke-width="0.7" stroke-linecap="round" stroke-linejoin="round" d="M410.026,238.609
		c0.295,0.404,3.749-3.341,4.042-2.937c0.924,1.272-9.627,11.819-8.702,13.092c1.682,2.314,21.468-19.135,23.149-16.819
		c1.888,2.598-24.273,20.433-22.385,23.031c2.946,4.055,37.606-33.519,40.553-29.464c2.997,4.125-40.792,30.102-37.795,34.228
		c0.842,1.158,10.73-9.564,11.571-8.406c0.812,1.12-7.873,10.778-7.059,11.898c0.882,1.216,11.283-10.059,12.168-8.841
		c0.677,0.933-5.681,9.468-5.003,10.402c2.019,2.775,25.751-22.952,27.769-20.175c1.229,1.692-14.352,14.607-13.121,16.3
		c0.954,1.313,12.168-10.845,13.121-9.531c0.856,1.181-8.581,11.2-7.725,12.381c0.571,0.787,7.298-6.507,7.87-5.718"/>
	<path fill="none" stroke="#040000" stroke-width="0.7" stroke-linecap="round" stroke-linejoin="round" d="M408.762,219.049
		c0.086,0.117,1.094-0.975,1.18-0.857c0.38,0.524,0.041,5.938,0.422,6.461c0.998,1.375,12.73-11.346,13.728-9.973
		c0.718,0.986-6.323,9.854-5.607,10.842c1.053,1.448,13.423-11.964,14.475-10.516c0.654,0.899-5.271,9.223-4.616,10.123
		c0.8,1.102,10.213-9.104,11.012-8.001c0.767,1.055-7.124,10.332-6.356,11.387c0.78,1.076,9.983-8.899,10.766-7.821"/>
</g>
</svg>
